<?xml version="1.0" encoding="utf-8"?>
<!-- Generator: Adobe Illustrator 27.5.0, SVG Export Plug-In . SVG Version: 6.00 Build 0)  -->
<svg version="1.1" xmlns="http://www.w3.org/2000/svg" xmlns:xlink="http://www.w3.org/1999/xlink" x="0px" y="0px"
	 viewBox="0 0 500 500" style="enable-background:new 0 0 500 500;" xml:space="preserve">
<g id="Background_Simple">
	<g>
		<path style="fill:#92E3A9;" d="M467.563,119.31c-1.584-2.687-3.246-5.323-4.987-7.903
			c-23.183-34.346-63.071-57.838-102.312-68.458c-17.184-4.651-34.93-7.089-52.711-7.692
			c-116.614-3.953-163.062,87.955-201.604,111.673S8.111,211.167,12.064,296.157c3.953,84.99,65.225,165.039,183.816,169.98
			c118.591,4.941,126.497-48.424,192.71-68.19c43.819-13.08,74.952-57.26,90.197-98.088
			C499.563,244.217,498.584,171.943,467.563,119.31z"/>
		<path style="opacity:0.7;fill:#FFFFFF;" d="M467.563,119.31c-1.584-2.687-3.246-5.323-4.987-7.903
			c-23.183-34.346-63.071-57.838-102.312-68.458c-17.184-4.651-34.93-7.089-52.711-7.692
			c-116.614-3.953-163.062,87.955-201.604,111.673S8.111,211.167,12.064,296.157c3.953,84.99,65.225,165.039,183.816,169.98
			c118.591,4.941,126.497-48.424,192.71-68.19c43.819-13.08,74.952-57.26,90.197-98.088
			C499.563,244.217,498.584,171.943,467.563,119.31z"/>
	</g>
</g>
<g id="Clouds">
	<g>
		<path style="fill:none;stroke:#263238;stroke-linecap:round;stroke-linejoin:round;stroke-miterlimit:10;" d="M430.26,45.451
			c-2.545-2.64-6.963-5.07-14.621-5.257c-17.217-0.42-12.598,11.759-17.217,14.698c-4.619,2.939-5.879-1.68-10.498,1.26
			c-4.62,2.939-2.52,8.819-6.299,9.659c-3.779,0.84-8.819-3.779-13.438-0.84c-4.619,2.939-4.619,5.459-6.719,5.459
			c-2.099,0-6.299-1.68-8.818,0c-2.52,1.68-5.459,3.779-5.459,3.779h45.089"/>
		<path style="fill:none;stroke:#263238;stroke-linecap:round;stroke-linejoin:round;stroke-miterlimit:10;" d="M435.002,52.969
			c-0.411-0.199-0.845-0.398-1.305-0.597c0,0-0.145-2.027-1.547-4.428"/>
		<path style="fill:none;stroke:#263238;stroke-linecap:round;stroke-linejoin:round;stroke-miterlimit:10;" d="M398.055,74.209
			h55.379c0,0,1.26-3.779-3.36-6.299c-4.619-2.519-6.719-0.42-8.398-2.519c-1.496-1.87,3.336-6.404-4.485-11.229"/>
	</g>
	<g>
		<path style="fill:none;stroke:#263238;stroke-linecap:round;stroke-linejoin:round;stroke-miterlimit:10;" d="M124.438,63.045
			c-0.988-1.025-2.703-1.968-5.676-2.041c-6.684-0.163-4.891,4.565-6.684,5.706c-1.793,1.141-2.282-0.652-4.075,0.489
			c-1.793,1.141-0.978,3.423-2.445,3.75c-1.467,0.326-3.423-1.467-5.216-0.326c-1.793,1.141-1.793,2.119-2.608,2.119
			c-0.815,0-2.445-0.652-3.423,0c-0.978,0.652-2.119,1.467-2.119,1.467h17.503"/>
		<path style="fill:none;stroke:#263238;stroke-linecap:round;stroke-linejoin:round;stroke-miterlimit:10;" d="M126.278,65.964
			c-0.159-0.077-0.328-0.155-0.507-0.232c0,0-0.056-0.787-0.601-1.719"/>
		<path style="fill:none;stroke:#263238;stroke-linecap:round;stroke-linejoin:round;stroke-miterlimit:10;" d="M111.936,74.209
			h21.498c0,0,0.489-1.467-1.304-2.445c-1.793-0.978-2.608-0.163-3.26-0.978c-0.581-0.726,1.295-2.486-1.741-4.359"/>
	</g>
	<g>
		<path style="fill:none;stroke:#263238;stroke-linecap:round;stroke-linejoin:round;stroke-miterlimit:10;" d="M365.308,35.282
			c-0.988-1.025-2.703-1.968-5.676-2.041c-6.684-0.163-4.891,4.565-6.684,5.706c-1.793,1.141-2.282-0.652-4.075,0.489
			c-1.793,1.141-0.978,3.423-2.445,3.749c-1.467,0.326-3.423-1.467-5.217-0.326c-1.793,1.141-1.793,2.119-2.608,2.119
			c-0.815,0-2.445-0.652-3.423,0c-0.978,0.652-2.119,1.467-2.119,1.467h17.503"/>
		<path style="fill:none;stroke:#263238;stroke-linecap:round;stroke-linejoin:round;stroke-miterlimit:10;" d="M367.149,38.2
			c-0.159-0.077-0.328-0.155-0.507-0.232c0,0-0.056-0.787-0.6-1.719"/>
		<path style="fill:none;stroke:#263238;stroke-linecap:round;stroke-linejoin:round;stroke-miterlimit:10;" d="M352.806,46.445
			h21.498c0,0,0.489-1.467-1.304-2.445c-1.793-0.978-2.608-0.163-3.26-0.978c-0.581-0.726,1.295-2.486-1.741-4.359"/>
	</g>
</g>
<g id="Circle">
	<g>
		<circle style="fill:none;stroke:#263238;stroke-linejoin:round;stroke-dasharray:2.0013,2.0013;" cx="264" cy="244" r="179"/>
	</g>
</g>
<g id="Floor">
	<g>
		<line style="fill:#FFFFFF;stroke:#263238;stroke-miterlimit:10;" x1="397.628" y1="458.948" x2="437.357" y2="458.948"/>
		<line style="fill:#FFFFFF;stroke:#263238;stroke-miterlimit:10;" x1="76.262" y1="458.948" x2="390.565" y2="458.948"/>
	</g>
</g>
<g id="Clock">
	<g>
		<g>
			<g>
				<path style="fill:#263238;" d="M409.158,351.263c-0.361,0-0.727-0.087-1.069-0.268c-1.105-0.592-1.522-1.968-0.931-3.073
					l7.414-13.862c0.592-1.106,1.967-1.521,3.073-0.931c1.105,0.592,1.522,1.968,0.931,3.073l-7.414,13.862
					C410.754,350.829,409.969,351.263,409.158,351.263z"/>
			</g>
			<g>
				<path style="fill:#263238;" d="M437.854,351.263c-0.81,0-1.595-0.435-2.004-1.2l-7.414-13.862
					c-0.591-1.105-0.174-2.481,0.931-3.073c1.106-0.59,2.481-0.175,3.073,0.931l7.414,13.862c0.591,1.105,0.174,2.481-0.931,3.073
					C438.581,351.177,438.215,351.263,437.854,351.263z"/>
			</g>
		</g>
		
			<circle style="fill:#92E3A9;stroke:#263238;stroke-linecap:round;stroke-linejoin:round;stroke-miterlimit:10;" cx="423.499" cy="321.591" r="20.309"/>
		
			<circle style="fill:#FFFFFF;stroke:#263238;stroke-linecap:round;stroke-linejoin:round;stroke-miterlimit:10;" cx="423.499" cy="321.591" r="17.408"/>
		<path style="fill:none;stroke:#263238;stroke-miterlimit:10;" d="M423.821,308.697c0,0-0.322,14.184-0.322,12.895l3.546,7.092"/>
		<path style="fill:#FFFFFF;stroke:#263238;stroke-linecap:round;stroke-linejoin:round;stroke-miterlimit:10;" d="M434.976,300.315
			c-0.784-5.466-5.472-9.671-11.155-9.671c-5.682,0-10.371,4.205-11.155,9.671H434.976z"/>
		<circle style="fill:#263238;stroke:#263238;stroke-miterlimit:10;" cx="423.499" cy="321.591" r="1.289"/>
	</g>
</g>
<g id="Ball">
	<g>
		<path style="fill:#92E3A9;stroke:#263238;stroke-linecap:round;stroke-linejoin:round;stroke-miterlimit:10;" d="M458.679,219.182
			c0,12.363-10.024,22.386-22.386,22.386c-1.271,0-2.52-0.102-3.735-0.318c-10.58-1.771-18.64-10.977-18.64-22.069
			c0-11.091,8.06-20.298,18.64-22.069c1.215-0.216,2.463-0.318,3.735-0.318C448.655,196.796,458.679,206.82,458.679,219.182z"/>
		<path style="fill:none;stroke:#263238;stroke-linecap:round;stroke-linejoin:round;stroke-miterlimit:10;" d="M434.108,196.736
			c9.799,2.383,17.112,11.917,17.112,22.446c0,11.091-8.071,20.298-18.663,22.069"/>
		<path style="fill:none;stroke:#263238;stroke-linecap:round;stroke-linejoin:round;stroke-miterlimit:10;" d="M420.4,203.053
			c3.814,0.02,9.638,1.245,14.622,7.336c8.224,10.051,19.188,10.965,22.843,1.827"/>
		<path style="fill:none;stroke:#263238;stroke-linecap:round;stroke-linejoin:round;stroke-miterlimit:10;" d="M414.007,220.897
			c0,0,30.409,13.932,44.672-1.714"/>
		<path style="fill:none;stroke:#263238;stroke-linecap:round;stroke-linejoin:round;stroke-miterlimit:10;" d="M422.561,236.577
			c2.808,0.347,7.178,0.395,11.548-1.517c7.31-3.198,13.799-4.874,16.904-2.741c1.142,0.784,1.641,1.68,1.755,2.393"/>
	</g>
</g>
<g id="Apple">
	<g>
		<path style="fill:#FFFFFF;stroke:#263238;stroke-linejoin:round;stroke-miterlimit:10;" d="M415.016,130.44
			c0,9.967-8.15,20.544-15.96,20.544c-1.912,0-6.887,0.008-8.66-0.677c-9.677-3.737-13.412-13.001-13.412-21.055
			c0-4.186,1.251-8.745,4.563-11.533c4.395-3.699,9.235-1.372,14.333-1.372c4.436,0,10.66-1.816,14.042,0.679
			C414.189,120.175,415.016,125.484,415.016,130.44z"/>
		<path style="fill:#FFFFFF;stroke:#263238;stroke-linejoin:round;stroke-miterlimit:10;" d="M409.784,123.745
			c-0.643,1.113-2.582,1.197-4.332,0.187c-1.75-1.01-2.647-2.731-2.004-3.845c0.643-1.113,2.582-1.197,4.332-0.187
			C409.53,120.91,410.427,122.631,409.784,123.745z"/>
		<polygon style="fill:#263238;stroke:#263238;stroke-linejoin:round;stroke-miterlimit:10;" points="394.85,117.88 
			395.189,117.089 399.935,106.016 396.787,105.532 393.639,116.67 		"/>
		<path style="fill:#92E3A9;stroke:#263238;stroke-linejoin:round;stroke-miterlimit:10;" d="M395.577,110.374
			c0,0-2.179-4.843-5.327-5.569c-3.148-0.726-11.864,3.39-11.864,3.39s4.358,3.148,7.748,4.116
			C389.523,113.28,395.577,110.374,395.577,110.374z"/>
	</g>
</g>
<g id="Bottle">
	<g>
		<path style="fill:#FFFFFF;stroke:#263238;stroke-linejoin:round;stroke-miterlimit:10;" d="M275.611,98.209
			c-0.705-3.947-1.691-14.237-0.846-18.043c0.846-3.806,0.564-7.048,0.564-7.048V59.304c0,0,0.705-2.678-0.141-5.638
			c-0.846-2.96-7.33-9.304-7.33-9.304v-2.255l-0.413-0.024l-1.783-0.074v-0.043l-0.523,0.022l-0.523-0.022v0.043l-1.783,0.074
			l-0.413,0.024v2.255c0,0-6.484,6.343-7.33,9.304c-0.846,2.96-0.141,5.638-0.141,5.638v13.814c0,0-0.282,3.242,0.564,7.048
			c0.846,3.806-0.141,14.096-0.846,18.043c-0.705,3.947-0.423,6.907,1.833,8.035c1.88,0.94,6.99,0.313,8.639,0.078
			c1.649,0.235,6.759,0.862,8.639-0.078C276.034,105.117,276.316,102.156,275.611,98.209z"/>
		<path style="fill:#92E3A9;" d="M272.864,80.924c0.679-3.244,0.452-6.007,0.452-6.007v-6.702h-16.353v6.702
			c0,0-0.226,2.763,0.452,6.007c0.679,3.244-0.113,12.014-0.679,15.378c-0.566,3.364-0.339,5.887,1.47,6.848
			c1.509,0.801,5.609,0.267,6.932,0.067c1.323,0.2,5.424,0.734,6.932-0.067c1.81-0.961,2.036-3.484,1.47-6.848
			C272.977,92.938,272.185,84.167,272.864,80.924z"/>
		
			<rect x="261.716" y="38.865" style="fill:#263238;stroke:#263238;stroke-linejoin:round;stroke-miterlimit:10;" width="6.766" height="3.806"/>
		
			<line style="fill:#FFFFFF;stroke:#263238;stroke-linejoin:round;stroke-miterlimit:10;" x1="255.373" y1="57.894" x2="275.107" y2="57.894"/>
		
			<line style="fill:#FFFFFF;stroke:#263238;stroke-linejoin:round;stroke-miterlimit:10;" x1="263.338" y1="71.991" x2="274.262" y2="71.991"/>
		
			<line style="fill:#FFFFFF;stroke:#263238;stroke-linejoin:round;stroke-miterlimit:10;" x1="256.077" y1="71.991" x2="259.36" y2="71.991"/>
	</g>
</g>
<g id="Heart">
	<g>
		<path style="fill:#92E3A9;stroke:#263238;stroke-linejoin:round;stroke-miterlimit:10;" d="M122.352,125.924h4.92l5.364-10.057
			l5.437,11.96l0.925-2.467h6.819l7.249-16.475l4.671,15.346h8.529c4.893-5.699,4.652-14.288-0.747-19.687v0
			c-5.667-5.667-14.855-5.665-20.519,0.005l-1.495,1.497l-1.506-1.506c-5.665-5.665-14.849-5.665-20.514,0
			c-5.665,5.665-5.665,14.849,0,20.514L122.352,125.924z"/>
		<polygon style="fill:#92E3A9;stroke:#263238;stroke-linejoin:round;stroke-miterlimit:10;" points="155.854,126.77 
			152.629,116.174 147.471,127.897 140.755,127.897 138.296,134.454 132.453,121.6 128.794,128.461 124.89,128.461 143.502,147.074 
			163.807,126.77 		"/>
	</g>
</g>
<g id="Carrot">
	<g>
		<g>
			<path style="fill:#92E3A9;stroke:#263238;stroke-linejoin:round;stroke-miterlimit:10;" d="M75.582,212.156
				c0,0-0.915-3.049-3.659-3.659c-2.745-0.61-8.539,0.305-9.453-3.049c-0.915-3.354,3.354-2.44,2.44-5.184
				c-0.915-2.745-7.624-2.745-9.148-7.929c-1.525-5.184,0.61-10.673,4.574-8.844c3.964,1.83,5.794,9.453,7.319,12.503
				c1.525,3.049,1.22-3.049,5.489-3.659c4.269-0.61,8.539,2.744,5.794,7.014c-2.744,4.269-2.637,7.588-2.135,9.758
				c0.35,1.515,0.437,1.396,0.437,1.396L75.582,212.156z"/>
			<path style="fill:none;stroke:#263238;stroke-miterlimit:10;" d="M60.337,191.377c-1.609-2.648-1.778-4.06-1.778-4.06"/>
			<path style="fill:none;stroke:#263238;stroke-miterlimit:10;" d="M76.581,211.442c0,0-0.657-3.567-3.849-7.134
				c-3.192-3.567-7.322-6.008-10.607-10.326c-0.264-0.348-0.509-0.682-0.736-1.004"/>
		</g>
		<path style="fill:#FFFFFF;stroke:#263238;stroke-miterlimit:10;" d="M85.146,207.191c0,0-13.938,2.788-13.938,16.028
			s37.631,39.025,40.419,34.147c2.788-4.878-10.909-33.754-14.393-40.025C93.749,211.069,90.024,206.494,85.146,207.191z"/>
		<path style="fill:none;stroke:#263238;stroke-miterlimit:10;" d="M75.277,232.893c0,0,4.879-7.319,9.453-9.453"/>
		<path style="fill:none;stroke:#263238;stroke-miterlimit:10;" d="M99.673,225.574c0,0-4.879,1.83-9.148,6.099"/>
		<path style="fill:none;stroke:#263238;stroke-miterlimit:10;" d="M92.964,248.141c0,0,2.135-5.489,7.319-8.234"/>
		<line style="fill:none;stroke:#263238;stroke-miterlimit:10;" x1="92.049" y1="219.17" x2="89" y2="221"/>
		<line style="fill:none;stroke:#263238;stroke-miterlimit:10;" x1="104.552" y1="237.772" x2="102.418" y2="238.382"/>
	</g>
</g>
<g id="Orange">
	<g>
		
			<circle style="fill:#92E3A9;stroke:#263238;stroke-linecap:round;stroke-linejoin:round;stroke-miterlimit:10;" cx="99.69" cy="320.728" r="22.704"/>
		<path style="fill:#FFFFFF;stroke:#263238;stroke-linecap:round;stroke-linejoin:round;stroke-miterlimit:10;" d="M105.604,304.98
			c0,3.88-3.533,12.241-5.914,12.241c-2.381,0-5.913-8.361-5.913-12.241s3.532-5.027,5.913-5.027
			C102.071,299.952,105.604,301.1,105.604,304.98z"/>
		<path style="fill:#FFFFFF;stroke:#263238;stroke-linecap:round;stroke-linejoin:round;stroke-miterlimit:10;" d="M89.008,307.732
			c3.36,1.94,9.187,8.329,7.997,10.391c-1.19,2.062-10.55,1.791-13.91-0.149c-3.36-1.94-2.588-5.572-1.397-7.634
			C82.888,308.278,85.648,305.792,89.008,307.732z"/>
		<path style="fill:#FFFFFF;stroke:#263238;stroke-linecap:round;stroke-linejoin:round;stroke-miterlimit:10;" d="M83.094,323.481
			c3.36-1.94,12.966-3.638,14.157-1.576c1.191,2.062-4.883,9.878-8.244,11.818c-3.36,1.94-6.12-0.545-7.31-2.607
			C80.507,329.054,79.734,325.421,83.094,323.481z"/>
		<path style="fill:#FFFFFF;stroke:#263238;stroke-linecap:round;stroke-linejoin:round;stroke-miterlimit:10;" d="M93.776,336.477
			c0-3.88,3.533-13.339,5.914-13.339c2.381,0,5.913,9.459,5.913,13.339c0,3.88-3.532,5.027-5.913,5.027
			C97.309,341.504,93.776,340.357,93.776,336.477z"/>
		<path style="fill:#FFFFFF;stroke:#263238;stroke-linecap:round;stroke-linejoin:round;stroke-miterlimit:10;" d="M110.371,333.724
			c-3.36-1.94-8.887-9.264-7.696-11.326c1.191-2.062,10.249-0.856,13.609,1.084c3.36,1.94,2.588,5.572,1.397,7.634
			S113.731,335.664,110.371,333.724z"/>
		<path style="fill:#FFFFFF;stroke:#263238;stroke-linecap:round;stroke-linejoin:round;stroke-miterlimit:10;" d="M116.285,317.975
			c-3.36,1.94-12.419,2.786-13.61,0.724c-1.19-2.062,4.337-9.026,7.697-10.966c3.36-1.94,6.12,0.545,7.31,2.607
			C118.872,312.402,119.645,316.035,116.285,317.975z"/>
	</g>
</g>
<g id="Plants_1_">
	<g>
		<path style="fill:#263238;" d="M433.502,399.444c0.04,0.025,0.836-3.056,0.864-3.256c0.322-2.316-0.416-6.983-2.775-8.122
			c-1.699-0.821-3.599,0.167-4.218,1.868c-0.632,1.738,0.169,3.87,1.119,5.336C429.607,396.992,433.499,399.442,433.502,399.444z"/>
		<path style="fill:#263238;" d="M386.998,398.433c1.879,0.821,6.477,0.718,6.481,0.717c0.048-0.001-0.988-3.01-1.075-3.192
			c-1.009-2.11-4.199-5.595-6.795-5.244c-1.87,0.253-2.91,2.124-2.488,3.885C383.552,396.398,385.397,397.733,386.998,398.433z"/>
		<path style="fill:#263238;" d="M388.585,411.75c1.95,0.284,6.053-0.906,6.379-1.002c0.648,2.297,1.499,4.601,2.489,6.886
			c0.564,1.307,1.173,2.606,1.801,3.9c-0.374-0.548-0.713-1.036-0.768-1.099c-1.531-1.769-5.527-4.287-7.938-3.263
			c-1.737,0.738-2.246,2.817-1.374,4.404c0.891,1.621,3.023,2.422,4.752,2.674c1.754,0.255,5.273-0.689,6.201-0.951
			c0.246,0.494,0.486,0.99,0.733,1.483c1.188,2.366,2.384,4.722,3.486,7.068c0.389,0.827,0.741,1.655,1.097,2.483
			c-0.333-0.487-0.618-0.894-0.667-0.951c-1.53-1.769-5.527-4.287-7.938-3.263c-1.737,0.738-2.246,2.817-1.374,4.404
			c0.891,1.62,3.023,2.422,4.752,2.673c1.674,0.244,4.93-0.598,6.033-0.905c0.339,0.859,0.68,1.718,0.969,2.565
			c0.185,0.583,0.403,1.132,0.556,1.727c0.164,0.587,0.326,1.168,0.486,1.743c0.268,1.119,0.552,2.272,0.787,3.371
			c0.169,0.763,0.316,1.493,0.466,2.227c-0.377-0.827-1.15-2.432-1.23-2.559c-1.245-1.98-4.814-5.075-7.352-4.428
			c-1.829,0.466-2.647,2.444-2.025,4.145c0.635,1.737,2.621,2.852,4.292,3.363c1.839,0.562,5.912,0.048,6.42-0.019
			c0.244,1.217,0.47,2.403,0.665,3.525c0.413,2.343,0.73,4.454,0.975,6.267h1.711c-0.293-1.878-0.671-4.091-1.161-6.552
			c-0.243-1.237-0.527-2.553-0.832-3.902c0.306-0.122,2.043-0.824,3.582-1.684c1.341,1.452,4.776,3.151,5.221,3.367
			c-0.468,1.15-0.934,2.263-1.39,3.307c-0.892,2.053-1.74,3.883-2.5,5.465h1.847c0.647-1.445,1.351-3.072,2.083-4.861
			c0.48-1.165,0.969-2.42,1.459-3.714c0.493,0.103,4.525,0.922,6.403,0.498c1.704-0.385,3.768-1.349,4.53-3.034
			c0.747-1.649,0.079-3.683-1.71-4.284c-2.483-0.834-6.273,1.986-7.662,3.868c-0.082,0.111-0.836,1.415-1.299,2.245
			c0.198-0.53,0.395-1.041,0.592-1.589c0.396-1.08,0.76-2.17,1.155-3.341c0.171-0.572,0.344-1.15,0.518-1.734
			c0.186-0.575,0.309-1.206,0.467-1.814c0.337-1.418,0.611-2.871,0.853-4.341c0.947,0.345,4.326,1.52,6.077,1.397
			c1.742-0.122,3.929-0.763,4.938-2.312c0.988-1.517,0.636-3.629-1.042-4.494c-2.328-1.201-6.501,1.013-8.159,2.663
			c-0.103,0.103-1.16,1.421-1.726,2.155c0.139-0.885,0.282-1.767,0.394-2.667c0.323-2.597,0.568-5.236,0.824-7.867
			c0.078-0.806,0.166-1.608,0.25-2.412c0.335,0.126,4.322,1.611,6.283,1.473c1.743-0.122,3.928-0.763,4.938-2.312
			c0.988-1.517,0.636-3.629-1.042-4.494c-2.328-1.201-6.501,1.013-8.159,2.663c-0.125,0.124-1.642,2.022-2.005,2.524
			c0.187-1.769,0.39-3.531,0.66-5.259c0.37-2.385,0.865-4.706,1.51-6.918c0.156,0.059,4.31,1.627,6.318,1.486
			c1.743-0.122,3.929-0.763,4.938-2.312c0.988-1.517,0.635-3.629-1.042-4.494c-2.328-1.201-6.501,1.013-8.159,2.663
			c-0.109,0.108-1.266,1.553-1.801,2.253c-0.073-0.038-0.06-0.031-0.133-0.069c0.72-2.361,1.715-4.558,2.747-6.568
			c0.596-1.166,1.23-2.246,1.872-3.284c0.744,0.371,4.161,2.031,5.983,2.104c1.746,0.07,3.989-0.327,5.162-1.756
			c1.149-1.4,1.03-3.537-0.542-4.581c-2.182-1.449-6.573,0.293-8.402,1.75c-0.099,0.079-1.022,0.997-1.684,1.675
			c0.296-0.464,0.594-0.948,0.887-1.387c1.096-1.65,2.201-3.094,3.19-4.364c0.568-0.718,1.096-1.356,1.597-1.948
			c0.92-0.016,4.626-0.129,6.247-0.89c1.581-0.742,3.389-2.128,3.772-3.937c0.374-1.772-0.716-3.614-2.592-3.816
			c-2.604-0.28-5.699,3.289-6.651,5.426c-0.082,0.185-1.036,3.22-0.988,3.22c0,0,0.045-0.001,0.055-0.001
			c-0.493,0.56-1.015,1.165-1.572,1.839c-1.019,1.251-2.158,2.675-3.294,4.308c-1.139,1.629-2.331,3.43-3.415,5.441
			c-1.09,2.014-2.133,4.189-2.918,6.568c-0.009,0.027-0.015,0.056-0.023,0.083c0.013-0.767-0.021-2.914-0.042-3.078
			c-0.301-2.319-2.245-6.625-4.821-7.101c-1.856-0.343-3.427,1.111-3.575,2.916c-0.151,1.843,1.185,3.688,2.488,4.851
			c1.469,1.313,5.548,2.584,5.873,2.684c-0.727,2.273-1.288,4.664-1.723,7.116c-0.25,1.401-0.458,2.821-0.649,4.246
			c-0.01-0.664-0.023-1.257-0.034-1.34c-0.301-2.32-2.245-6.625-4.821-7.101c-1.856-0.343-3.427,1.111-3.575,2.915
			c-0.151,1.843,1.185,3.688,2.488,4.852c1.322,1.181,4.778,2.334,5.696,2.627c-0.067,0.548-0.141,1.094-0.206,1.642
			c-0.314,2.629-0.616,5.253-0.991,7.819c-0.132,0.904-0.295,1.79-0.455,2.676c-0.009-0.59-0.022-1.086-0.032-1.161
			c-0.301-2.32-2.245-6.625-4.821-7.101c-1.856-0.343-3.427,1.111-3.575,2.915c-0.151,1.843,1.186,3.688,2.489,4.851
			c1.261,1.127,4.441,2.22,5.531,2.574c-0.191,0.903-0.381,1.808-0.607,2.674c-0.168,0.588-0.288,1.166-0.489,1.747
			c-0.187,0.58-0.372,1.153-0.556,1.722c-0.394,1.082-0.793,2.2-1.203,3.246c-0.28,0.729-0.56,1.419-0.84,2.115
			c0.142-0.898,0.382-2.663,0.385-2.813c0.036-1.554-0.516-4.08-1.614-5.855c0.007-0.229-0.007-0.458-0.043-0.686
			c-0.287-1.788-1.967-3.115-3.79-2.63c-2.531,0.674-4.137,5.117-4.257,7.453c-0.007,0.138,0.083,1.641,0.156,2.589
			c-0.127-0.551-0.245-1.087-0.383-1.652c-0.265-1.12-0.563-2.229-0.879-3.424c-0.173-0.572-0.348-1.149-0.524-1.732
			c-0.162-0.582-0.408-1.176-0.611-1.771c-0.501-1.369-1.075-2.732-1.683-4.092c0.98-0.235,4.447-1.119,5.839-2.187
			c1.386-1.063,2.856-2.803,2.843-4.652c-0.013-1.811-1.472-3.377-3.348-3.174c-2.604,0.283-4.864,4.431-5.336,6.722
			c-0.03,0.143-0.184,1.825-0.251,2.75c-0.372-0.815-0.74-1.63-1.143-2.442c-1.164-2.344-2.415-4.68-3.653-7.017
			c-0.38-0.716-0.749-1.433-1.122-2.15c0.35-0.08,4.494-1.041,6.053-2.238c1.386-1.063,2.856-2.803,2.843-4.652
			c-0.013-1.81-1.472-3.378-3.348-3.174c-2.604,0.283-4.864,4.431-5.337,6.722c-0.035,0.173-0.254,2.593-0.279,3.211
			c-0.82-1.579-1.623-3.16-2.351-4.751c-1.008-2.194-1.875-4.401-2.557-6.603c0.163-0.037,4.492-1.021,6.09-2.246
			c1.386-1.063,2.856-2.803,2.843-4.652c-0.013-1.81-1.472-3.377-3.348-3.173c-2.604,0.283-4.864,4.431-5.337,6.722
			c-0.031,0.151-0.2,1.996-0.259,2.874c-0.082,0.009-0.067,0.007-0.148,0.016c-0.702-2.367-1.085-4.749-1.332-6.995
			c-0.146-1.301-0.213-2.552-0.251-3.772c0.825-0.1,4.591-0.602,6.15-1.546c1.494-0.905,3.147-2.473,3.337-4.312
			c0.186-1.801-1.092-3.519-2.979-3.522c-2.619-0.005-5.321,3.87-6.042,6.095c-0.039,0.121-0.302,1.395-0.48,2.326
			c-0.008-0.55-0.028-1.118-0.025-1.646c0.003-1.981,0.129-3.794,0.253-5.4c0.078-0.912,0.167-1.736,0.257-2.505
			c0.758-0.521,3.788-2.66,4.719-4.188c0.909-1.492,1.653-3.645,0.974-5.364c-0.665-1.684-2.591-2.62-4.267-1.753
			c-2.327,1.203-2.939,5.887-2.554,8.194c0.034,0.199,0.912,3.258,0.952,3.231c0,0,0.037-0.025,0.046-0.031
			c-0.102,0.739-0.203,1.532-0.297,2.401c-0.159,1.606-0.324,3.422-0.371,5.41c-0.052,1.987-0.052,4.147,0.153,6.422
			c0.202,2.281,0.532,4.67,1.19,7.088c0.007,0.027,0.019,0.055,0.026,0.082c-0.412-0.647-1.625-2.419-1.733-2.544
			c-1.531-1.769-5.527-4.287-7.938-3.263c-1.737,0.738-2.246,2.817-1.374,4.404C384.724,410.697,386.857,411.499,388.585,411.75z"/>
		<path style="opacity:0.3;fill:#263238;" d="M386.998,398.433c1.879,0.821,6.477,0.718,6.481,0.717
			c0.048-0.001-0.988-3.01-1.075-3.192c-1.009-2.11-4.199-5.595-6.795-5.244c-1.87,0.253-2.91,2.124-2.488,3.885
			C383.552,396.398,385.397,397.733,386.998,398.433z"/>
		<path style="opacity:0.3;fill:#263238;" d="M433.502,399.444c0.04,0.025,0.836-3.056,0.864-3.256
			c0.322-2.316-0.416-6.983-2.775-8.122c-1.699-0.821-3.599,0.167-4.218,1.868c-0.632,1.738,0.169,3.87,1.119,5.336
			C429.607,396.992,433.499,399.442,433.502,399.444z"/>
		<path style="opacity:0.3;fill:#263238;" d="M388.585,411.75c1.95,0.284,6.053-0.906,6.379-1.002
			c0.648,2.297,1.499,4.601,2.489,6.886c0.564,1.307,1.173,2.606,1.801,3.9c-0.374-0.548-0.713-1.036-0.768-1.099
			c-1.531-1.769-5.527-4.287-7.938-3.263c-1.737,0.738-2.246,2.817-1.374,4.404c0.891,1.621,3.023,2.422,4.752,2.674
			c1.754,0.255,5.273-0.689,6.201-0.951c0.246,0.494,0.486,0.99,0.733,1.483c1.188,2.366,2.384,4.722,3.486,7.068
			c0.389,0.827,0.741,1.655,1.097,2.483c-0.333-0.487-0.618-0.894-0.667-0.951c-1.53-1.769-5.527-4.287-7.938-3.263
			c-1.737,0.738-2.246,2.817-1.374,4.404c0.891,1.62,3.023,2.422,4.752,2.673c1.674,0.244,4.93-0.598,6.033-0.905
			c0.339,0.859,0.68,1.718,0.969,2.565c0.185,0.583,0.403,1.132,0.556,1.727c0.164,0.587,0.326,1.168,0.486,1.743
			c0.268,1.119,0.552,2.272,0.787,3.371c0.169,0.763,0.316,1.493,0.466,2.227c-0.377-0.827-1.15-2.432-1.23-2.559
			c-1.245-1.98-4.814-5.075-7.352-4.428c-1.829,0.466-2.647,2.444-2.025,4.145c0.635,1.737,2.621,2.852,4.292,3.363
			c1.839,0.562,5.912,0.048,6.42-0.019c0.244,1.217,0.47,2.403,0.665,3.525c0.413,2.343,0.73,4.454,0.975,6.267h1.711
			c-0.293-1.878-0.671-4.091-1.161-6.552c-0.243-1.237-0.527-2.553-0.832-3.902c0.306-0.122,2.043-0.824,3.582-1.684
			c1.341,1.452,4.776,3.151,5.221,3.367c-0.468,1.15-0.934,2.263-1.39,3.307c-0.892,2.053-1.74,3.883-2.5,5.465h1.847
			c0.647-1.445,1.351-3.072,2.083-4.861c0.48-1.165,0.969-2.42,1.459-3.714c0.493,0.103,4.525,0.922,6.403,0.498
			c1.704-0.385,3.768-1.349,4.53-3.034c0.747-1.649,0.079-3.683-1.71-4.284c-2.483-0.834-6.273,1.986-7.662,3.868
			c-0.082,0.111-0.836,1.415-1.299,2.245c0.198-0.53,0.395-1.041,0.592-1.589c0.396-1.08,0.76-2.17,1.155-3.341
			c0.171-0.572,0.344-1.15,0.518-1.734c0.186-0.575,0.309-1.206,0.467-1.814c0.337-1.418,0.611-2.871,0.853-4.341
			c0.947,0.345,4.326,1.52,6.077,1.397c1.742-0.122,3.929-0.763,4.938-2.312c0.988-1.517,0.636-3.629-1.042-4.494
			c-2.328-1.201-6.501,1.013-8.159,2.663c-0.103,0.103-1.16,1.421-1.726,2.155c0.139-0.885,0.282-1.767,0.394-2.667
			c0.323-2.597,0.568-5.236,0.824-7.867c0.078-0.806,0.166-1.608,0.25-2.412c0.335,0.126,4.322,1.611,6.283,1.473
			c1.743-0.122,3.928-0.763,4.938-2.312c0.988-1.517,0.636-3.629-1.042-4.494c-2.328-1.201-6.501,1.013-8.159,2.663
			c-0.125,0.124-1.642,2.022-2.005,2.524c0.187-1.769,0.39-3.531,0.66-5.259c0.37-2.385,0.865-4.706,1.51-6.918
			c0.156,0.059,4.31,1.627,6.318,1.486c1.743-0.122,3.929-0.763,4.938-2.312c0.988-1.517,0.635-3.629-1.042-4.494
			c-2.328-1.201-6.501,1.013-8.159,2.663c-0.109,0.108-1.266,1.553-1.801,2.253c-0.073-0.038-0.06-0.031-0.133-0.069
			c0.72-2.361,1.715-4.558,2.747-6.568c0.596-1.166,1.23-2.246,1.872-3.284c0.744,0.371,4.161,2.031,5.983,2.104
			c1.746,0.07,3.989-0.327,5.162-1.756c1.149-1.4,1.03-3.537-0.542-4.581c-2.182-1.449-6.573,0.293-8.402,1.75
			c-0.099,0.079-1.022,0.997-1.684,1.675c0.296-0.464,0.594-0.948,0.887-1.387c1.096-1.65,2.201-3.094,3.19-4.364
			c0.568-0.718,1.096-1.356,1.597-1.948c0.92-0.016,4.626-0.129,6.247-0.89c1.581-0.742,3.389-2.128,3.772-3.937
			c0.374-1.772-0.716-3.614-2.592-3.816c-2.604-0.28-5.699,3.289-6.651,5.426c-0.082,0.185-1.036,3.22-0.988,3.22
			c0,0,0.045-0.001,0.055-0.001c-0.493,0.56-1.015,1.165-1.572,1.839c-1.019,1.251-2.158,2.675-3.294,4.308
			c-1.139,1.629-2.331,3.43-3.415,5.441c-1.09,2.014-2.133,4.189-2.918,6.568c-0.009,0.027-0.015,0.056-0.023,0.083
			c0.013-0.767-0.021-2.914-0.042-3.078c-0.301-2.319-2.245-6.625-4.821-7.101c-1.856-0.343-3.427,1.111-3.575,2.916
			c-0.151,1.843,1.185,3.688,2.488,4.851c1.469,1.313,5.548,2.584,5.873,2.684c-0.727,2.273-1.288,4.664-1.723,7.116
			c-0.25,1.401-0.458,2.821-0.649,4.246c-0.01-0.664-0.023-1.257-0.034-1.34c-0.301-2.32-2.245-6.625-4.821-7.101
			c-1.856-0.343-3.427,1.111-3.575,2.915c-0.151,1.843,1.185,3.688,2.488,4.852c1.322,1.181,4.778,2.334,5.696,2.627
			c-0.067,0.548-0.141,1.094-0.206,1.642c-0.314,2.629-0.616,5.253-0.991,7.819c-0.132,0.904-0.295,1.79-0.455,2.676
			c-0.009-0.59-0.022-1.086-0.032-1.161c-0.301-2.32-2.245-6.625-4.821-7.101c-1.856-0.343-3.427,1.111-3.575,2.915
			c-0.151,1.843,1.186,3.688,2.489,4.851c1.261,1.127,4.441,2.22,5.531,2.574c-0.191,0.903-0.381,1.808-0.607,2.674
			c-0.168,0.588-0.288,1.166-0.489,1.747c-0.187,0.58-0.372,1.153-0.556,1.722c-0.394,1.082-0.793,2.2-1.203,3.246
			c-0.28,0.729-0.56,1.419-0.84,2.115c0.142-0.898,0.382-2.663,0.385-2.813c0.036-1.554-0.516-4.08-1.614-5.855
			c0.007-0.229-0.007-0.458-0.043-0.686c-0.287-1.788-1.967-3.115-3.79-2.63c-2.531,0.674-4.137,5.117-4.257,7.453
			c-0.007,0.138,0.083,1.641,0.156,2.589c-0.127-0.551-0.245-1.087-0.383-1.652c-0.265-1.12-0.563-2.229-0.879-3.424
			c-0.173-0.572-0.348-1.149-0.524-1.732c-0.162-0.582-0.408-1.176-0.611-1.771c-0.501-1.369-1.075-2.732-1.683-4.092
			c0.98-0.235,4.447-1.119,5.839-2.187c1.386-1.063,2.856-2.803,2.843-4.652c-0.013-1.811-1.472-3.377-3.348-3.174
			c-2.604,0.283-4.864,4.431-5.336,6.722c-0.03,0.143-0.184,1.825-0.251,2.75c-0.372-0.815-0.74-1.63-1.143-2.442
			c-1.164-2.344-2.415-4.68-3.653-7.017c-0.38-0.716-0.749-1.433-1.122-2.15c0.35-0.08,4.494-1.041,6.053-2.238
			c1.386-1.063,2.856-2.803,2.843-4.652c-0.013-1.81-1.472-3.378-3.348-3.174c-2.604,0.283-4.864,4.431-5.337,6.722
			c-0.035,0.173-0.254,2.593-0.279,3.211c-0.82-1.579-1.623-3.16-2.351-4.751c-1.008-2.194-1.875-4.401-2.557-6.603
			c0.163-0.037,4.492-1.021,6.09-2.246c1.386-1.063,2.856-2.803,2.843-4.652c-0.013-1.81-1.472-3.377-3.348-3.173
			c-2.604,0.283-4.864,4.431-5.337,6.722c-0.031,0.151-0.2,1.996-0.259,2.874c-0.082,0.009-0.067,0.007-0.148,0.016
			c-0.702-2.367-1.085-4.749-1.332-6.995c-0.146-1.301-0.213-2.552-0.251-3.772c0.825-0.1,4.591-0.602,6.15-1.546
			c1.494-0.905,3.147-2.473,3.337-4.312c0.186-1.801-1.092-3.519-2.979-3.522c-2.619-0.005-5.321,3.87-6.042,6.095
			c-0.039,0.121-0.302,1.395-0.48,2.326c-0.008-0.55-0.028-1.118-0.025-1.646c0.003-1.981,0.129-3.794,0.253-5.4
			c0.078-0.912,0.167-1.736,0.257-2.505c0.758-0.521,3.788-2.66,4.719-4.188c0.909-1.492,1.653-3.645,0.974-5.364
			c-0.665-1.684-2.591-2.62-4.267-1.753c-2.327,1.203-2.939,5.887-2.554,8.194c0.034,0.199,0.912,3.258,0.952,3.231
			c0,0,0.037-0.025,0.046-0.031c-0.102,0.739-0.203,1.532-0.297,2.401c-0.159,1.606-0.324,3.422-0.371,5.41
			c-0.052,1.987-0.052,4.147,0.153,6.422c0.202,2.281,0.532,4.67,1.19,7.088c0.007,0.027,0.019,0.055,0.026,0.082
			c-0.412-0.647-1.625-2.419-1.733-2.544c-1.531-1.769-5.527-4.287-7.938-3.263c-1.737,0.738-2.246,2.817-1.374,4.404
			C384.724,410.697,386.857,411.499,388.585,411.75z"/>
	</g>
	<g>
		<path style="fill:#263238;" d="M114.611,399.444c0.04,0.025,0.836-3.056,0.864-3.256c0.322-2.316-0.416-6.983-2.775-8.122
			c-1.699-0.821-3.599,0.167-4.218,1.868c-0.632,1.738,0.17,3.87,1.119,5.336C110.716,396.992,114.608,399.442,114.611,399.444z"/>
		<path style="fill:#263238;" d="M68.107,398.433c1.88,0.821,6.477,0.718,6.481,0.717c0.048-0.001-0.988-3.01-1.075-3.192
			c-1.009-2.11-4.199-5.595-6.795-5.244c-1.87,0.253-2.91,2.124-2.487,3.885C64.661,396.398,66.506,397.733,68.107,398.433z"/>
		<path style="fill:#263238;" d="M69.694,411.75c1.95,0.284,6.053-0.906,6.379-1.002c0.648,2.297,1.499,4.601,2.489,6.886
			c0.564,1.307,1.173,2.606,1.801,3.9c-0.374-0.548-0.713-1.036-0.768-1.099c-1.531-1.769-5.528-4.287-7.938-3.263
			c-1.737,0.738-2.246,2.817-1.374,4.404c0.891,1.621,3.023,2.422,4.752,2.674c1.754,0.255,5.273-0.689,6.201-0.951
			c0.246,0.494,0.486,0.99,0.733,1.483c1.188,2.366,2.384,4.722,3.486,7.068c0.389,0.827,0.741,1.655,1.097,2.483
			c-0.333-0.487-0.618-0.894-0.667-0.951c-1.53-1.769-5.527-4.287-7.938-3.263c-1.737,0.738-2.246,2.817-1.374,4.404
			c0.891,1.62,3.023,2.422,4.752,2.673c1.674,0.244,4.93-0.598,6.033-0.905c0.339,0.859,0.68,1.718,0.969,2.565
			c0.185,0.583,0.403,1.132,0.556,1.727c0.164,0.587,0.326,1.168,0.487,1.743c0.268,1.119,0.552,2.272,0.787,3.371
			c0.169,0.763,0.316,1.493,0.466,2.227c-0.377-0.827-1.15-2.432-1.23-2.559c-1.245-1.98-4.814-5.075-7.352-4.428
			c-1.829,0.466-2.647,2.444-2.025,4.145c0.635,1.737,2.621,2.852,4.292,3.363c1.839,0.562,5.912,0.048,6.42-0.019
			c0.244,1.217,0.47,2.403,0.665,3.525c0.413,2.343,0.73,4.454,0.975,6.267h1.712c-0.293-1.878-0.672-4.091-1.161-6.552
			c-0.243-1.237-0.527-2.553-0.831-3.902c0.306-0.122,2.043-0.824,3.582-1.684c1.341,1.452,4.776,3.151,5.221,3.367
			c-0.468,1.15-0.934,2.263-1.39,3.307c-0.892,2.053-1.74,3.883-2.5,5.465h1.847c0.647-1.445,1.351-3.072,2.083-4.861
			c0.48-1.165,0.969-2.42,1.459-3.714c0.493,0.103,4.524,0.922,6.403,0.498c1.704-0.385,3.768-1.349,4.53-3.034
			c0.747-1.649,0.079-3.683-1.711-4.284c-2.483-0.834-6.273,1.986-7.662,3.868c-0.082,0.111-0.836,1.415-1.299,2.245
			c0.198-0.53,0.395-1.041,0.592-1.589c0.396-1.08,0.76-2.17,1.156-3.341c0.171-0.572,0.344-1.15,0.518-1.734
			c0.186-0.575,0.309-1.206,0.467-1.814c0.337-1.418,0.611-2.871,0.853-4.341c0.947,0.345,4.326,1.52,6.077,1.397
			c1.742-0.122,3.929-0.763,4.938-2.312c0.988-1.517,0.636-3.629-1.041-4.494c-2.328-1.201-6.502,1.013-8.16,2.663
			c-0.104,0.103-1.16,1.421-1.726,2.155c0.139-0.885,0.282-1.767,0.394-2.667c0.323-2.597,0.568-5.236,0.825-7.867
			c0.078-0.806,0.166-1.608,0.25-2.412c0.335,0.126,4.322,1.611,6.283,1.473c1.743-0.122,3.929-0.763,4.938-2.312
			c0.988-1.517,0.636-3.629-1.042-4.494c-2.328-1.201-6.502,1.013-8.159,2.663c-0.125,0.124-1.642,2.022-2.005,2.524
			c0.187-1.769,0.39-3.531,0.66-5.259c0.37-2.385,0.865-4.706,1.51-6.918c0.156,0.059,4.31,1.627,6.318,1.486
			c1.743-0.122,3.929-0.763,4.938-2.312c0.988-1.517,0.635-3.629-1.042-4.494c-2.328-1.201-6.501,1.013-8.159,2.663
			c-0.109,0.108-1.266,1.553-1.801,2.253c-0.073-0.038-0.06-0.031-0.133-0.069c0.72-2.361,1.715-4.558,2.747-6.568
			c0.596-1.166,1.23-2.246,1.872-3.284c0.744,0.371,4.161,2.031,5.982,2.104c1.746,0.07,3.989-0.327,5.162-1.756
			c1.149-1.4,1.03-3.537-0.542-4.581c-2.182-1.449-6.573,0.293-8.402,1.75c-0.099,0.079-1.021,0.997-1.683,1.675
			c0.297-0.464,0.594-0.948,0.887-1.387c1.096-1.65,2.201-3.094,3.19-4.364c0.568-0.718,1.096-1.356,1.597-1.948
			c0.92-0.016,4.626-0.129,6.247-0.89c1.581-0.742,3.389-2.128,3.772-3.937c0.374-1.772-0.716-3.614-2.592-3.816
			c-2.604-0.28-5.699,3.289-6.651,5.426c-0.082,0.185-1.036,3.22-0.988,3.22c0,0,0.045-0.001,0.055-0.001
			c-0.493,0.56-1.015,1.165-1.572,1.839c-1.019,1.251-2.158,2.675-3.294,4.308c-1.139,1.629-2.331,3.43-3.415,5.441
			c-1.089,2.014-2.133,4.189-2.918,6.568c-0.009,0.027-0.015,0.056-0.023,0.083c0.013-0.767-0.021-2.914-0.042-3.078
			c-0.301-2.319-2.245-6.625-4.821-7.101c-1.856-0.343-3.427,1.111-3.575,2.916c-0.151,1.843,1.185,3.688,2.488,4.851
			c1.469,1.313,5.548,2.584,5.873,2.684c-0.727,2.273-1.288,4.664-1.723,7.116c-0.25,1.401-0.458,2.821-0.649,4.246
			c-0.01-0.664-0.024-1.257-0.034-1.34c-0.301-2.32-2.245-6.625-4.821-7.101c-1.856-0.343-3.427,1.111-3.575,2.915
			c-0.151,1.843,1.185,3.688,2.488,4.852c1.322,1.181,4.778,2.334,5.696,2.627c-0.067,0.548-0.141,1.094-0.206,1.642
			c-0.314,2.629-0.616,5.253-0.992,7.819c-0.132,0.904-0.295,1.79-0.454,2.676c-0.009-0.59-0.022-1.086-0.032-1.161
			c-0.301-2.32-2.245-6.625-4.821-7.101c-1.856-0.343-3.427,1.111-3.575,2.915c-0.151,1.843,1.186,3.688,2.488,4.851
			c1.261,1.127,4.441,2.22,5.531,2.574c-0.192,0.903-0.381,1.808-0.607,2.674c-0.168,0.588-0.288,1.166-0.489,1.747
			c-0.187,0.58-0.372,1.153-0.556,1.722c-0.394,1.082-0.793,2.2-1.203,3.246c-0.28,0.729-0.56,1.419-0.84,2.115
			c0.142-0.898,0.382-2.663,0.386-2.813c0.036-1.554-0.516-4.08-1.614-5.855c0.007-0.229-0.007-0.458-0.043-0.686
			c-0.287-1.788-1.967-3.115-3.79-2.63c-2.531,0.674-4.137,5.117-4.257,7.453c-0.007,0.138,0.083,1.641,0.156,2.589
			c-0.127-0.551-0.245-1.087-0.383-1.652c-0.265-1.12-0.563-2.229-0.879-3.424c-0.173-0.572-0.348-1.149-0.524-1.732
			c-0.162-0.582-0.408-1.176-0.611-1.771c-0.501-1.369-1.075-2.732-1.683-4.092c0.98-0.235,4.447-1.119,5.839-2.187
			c1.386-1.063,2.856-2.803,2.843-4.652c-0.013-1.811-1.472-3.377-3.348-3.174c-2.604,0.283-4.864,4.431-5.336,6.722
			c-0.03,0.143-0.184,1.825-0.251,2.75c-0.372-0.815-0.74-1.63-1.143-2.442c-1.164-2.344-2.415-4.68-3.653-7.017
			c-0.38-0.716-0.749-1.433-1.122-2.15c0.35-0.08,4.494-1.041,6.053-2.238c1.386-1.063,2.856-2.803,2.843-4.652
			c-0.013-1.81-1.472-3.378-3.348-3.174c-2.604,0.283-4.864,4.431-5.337,6.722c-0.035,0.173-0.254,2.593-0.279,3.211
			c-0.82-1.579-1.623-3.16-2.351-4.751c-1.008-2.194-1.875-4.401-2.557-6.603c0.163-0.037,4.492-1.021,6.09-2.246
			c1.386-1.063,2.856-2.803,2.843-4.652c-0.013-1.81-1.472-3.377-3.348-3.173c-2.604,0.283-4.864,4.431-5.337,6.722
			c-0.031,0.151-0.2,1.996-0.259,2.874c-0.082,0.009-0.067,0.007-0.148,0.016c-0.702-2.367-1.085-4.749-1.332-6.995
			c-0.146-1.301-0.213-2.552-0.25-3.772c0.825-0.1,4.591-0.602,6.15-1.546c1.494-0.905,3.147-2.473,3.337-4.312
			c0.186-1.801-1.092-3.519-2.979-3.522c-2.619-0.005-5.321,3.87-6.042,6.095c-0.039,0.121-0.302,1.395-0.48,2.326
			c-0.008-0.55-0.028-1.118-0.025-1.646c0.004-1.981,0.129-3.794,0.253-5.4c0.078-0.912,0.166-1.736,0.257-2.505
			c0.758-0.521,3.787-2.66,4.719-4.188c0.909-1.492,1.653-3.645,0.974-5.364c-0.665-1.684-2.591-2.62-4.267-1.753
			c-2.327,1.203-2.939,5.887-2.554,8.194c0.034,0.199,0.912,3.258,0.952,3.231c0,0,0.037-0.025,0.046-0.031
			c-0.102,0.739-0.203,1.532-0.297,2.401c-0.159,1.606-0.325,3.422-0.371,5.41c-0.052,1.987-0.052,4.147,0.153,6.422
			c0.202,2.281,0.532,4.67,1.19,7.088c0.007,0.027,0.019,0.055,0.026,0.082c-0.412-0.647-1.625-2.419-1.733-2.544
			c-1.531-1.769-5.527-4.287-7.938-3.263c-1.737,0.738-2.246,2.817-1.374,4.404C65.833,410.697,67.965,411.499,69.694,411.75z"/>
		<path style="opacity:0.3;fill:#263238;" d="M68.107,398.433c1.88,0.821,6.477,0.718,6.481,0.717
			c0.048-0.001-0.988-3.01-1.075-3.192c-1.009-2.11-4.199-5.595-6.795-5.244c-1.87,0.253-2.91,2.124-2.487,3.885
			C64.661,396.398,66.506,397.733,68.107,398.433z"/>
		<path style="opacity:0.3;fill:#263238;" d="M114.611,399.444c0.04,0.025,0.836-3.056,0.864-3.256
			c0.322-2.316-0.416-6.983-2.775-8.122c-1.699-0.821-3.599,0.167-4.218,1.868c-0.632,1.738,0.17,3.87,1.119,5.336
			C110.716,396.992,114.608,399.442,114.611,399.444z"/>
		<path style="opacity:0.3;fill:#263238;" d="M69.694,411.75c1.95,0.284,6.053-0.906,6.379-1.002
			c0.648,2.297,1.499,4.601,2.489,6.886c0.564,1.307,1.173,2.606,1.801,3.9c-0.374-0.548-0.713-1.036-0.768-1.099
			c-1.531-1.769-5.528-4.287-7.938-3.263c-1.737,0.738-2.246,2.817-1.374,4.404c0.891,1.621,3.023,2.422,4.752,2.674
			c1.754,0.255,5.273-0.689,6.201-0.951c0.246,0.494,0.486,0.99,0.733,1.483c1.188,2.366,2.384,4.722,3.486,7.068
			c0.389,0.827,0.741,1.655,1.097,2.483c-0.333-0.487-0.618-0.894-0.667-0.951c-1.53-1.769-5.527-4.287-7.938-3.263
			c-1.737,0.738-2.246,2.817-1.374,4.404c0.891,1.62,3.023,2.422,4.752,2.673c1.674,0.244,4.93-0.598,6.033-0.905
			c0.339,0.859,0.68,1.718,0.969,2.565c0.185,0.583,0.403,1.132,0.556,1.727c0.164,0.587,0.326,1.168,0.487,1.743
			c0.268,1.119,0.552,2.272,0.787,3.371c0.169,0.763,0.316,1.493,0.466,2.227c-0.377-0.827-1.15-2.432-1.23-2.559
			c-1.245-1.98-4.814-5.075-7.352-4.428c-1.829,0.466-2.647,2.444-2.025,4.145c0.635,1.737,2.621,2.852,4.292,3.363
			c1.839,0.562,5.912,0.048,6.42-0.019c0.244,1.217,0.47,2.403,0.665,3.525c0.413,2.343,0.73,4.454,0.975,6.267h1.712
			c-0.293-1.878-0.672-4.091-1.161-6.552c-0.243-1.237-0.527-2.553-0.831-3.902c0.306-0.122,2.043-0.824,3.582-1.684
			c1.341,1.452,4.776,3.151,5.221,3.367c-0.468,1.15-0.934,2.263-1.39,3.307c-0.892,2.053-1.74,3.883-2.5,5.465h1.847
			c0.647-1.445,1.351-3.072,2.083-4.861c0.48-1.165,0.969-2.42,1.459-3.714c0.493,0.103,4.524,0.922,6.403,0.498
			c1.704-0.385,3.768-1.349,4.53-3.034c0.747-1.649,0.079-3.683-1.711-4.284c-2.483-0.834-6.273,1.986-7.662,3.868
			c-0.082,0.111-0.836,1.415-1.299,2.245c0.198-0.53,0.395-1.041,0.592-1.589c0.396-1.08,0.76-2.17,1.156-3.341
			c0.171-0.572,0.344-1.15,0.518-1.734c0.186-0.575,0.309-1.206,0.467-1.814c0.337-1.418,0.611-2.871,0.853-4.341
			c0.947,0.345,4.326,1.52,6.077,1.397c1.742-0.122,3.929-0.763,4.938-2.312c0.988-1.517,0.636-3.629-1.041-4.494
			c-2.328-1.201-6.502,1.013-8.16,2.663c-0.104,0.103-1.16,1.421-1.726,2.155c0.139-0.885,0.282-1.767,0.394-2.667
			c0.323-2.597,0.568-5.236,0.825-7.867c0.078-0.806,0.166-1.608,0.25-2.412c0.335,0.126,4.322,1.611,6.283,1.473
			c1.743-0.122,3.929-0.763,4.938-2.312c0.988-1.517,0.636-3.629-1.042-4.494c-2.328-1.201-6.502,1.013-8.159,2.663
			c-0.125,0.124-1.642,2.022-2.005,2.524c0.187-1.769,0.39-3.531,0.66-5.259c0.37-2.385,0.865-4.706,1.51-6.918
			c0.156,0.059,4.31,1.627,6.318,1.486c1.743-0.122,3.929-0.763,4.938-2.312c0.988-1.517,0.635-3.629-1.042-4.494
			c-2.328-1.201-6.501,1.013-8.159,2.663c-0.109,0.108-1.266,1.553-1.801,2.253c-0.073-0.038-0.06-0.031-0.133-0.069
			c0.72-2.361,1.715-4.558,2.747-6.568c0.596-1.166,1.23-2.246,1.872-3.284c0.744,0.371,4.161,2.031,5.982,2.104
			c1.746,0.07,3.989-0.327,5.162-1.756c1.149-1.4,1.03-3.537-0.542-4.581c-2.182-1.449-6.573,0.293-8.402,1.75
			c-0.099,0.079-1.021,0.997-1.683,1.675c0.297-0.464,0.594-0.948,0.887-1.387c1.096-1.65,2.201-3.094,3.19-4.364
			c0.568-0.718,1.096-1.356,1.597-1.948c0.92-0.016,4.626-0.129,6.247-0.89c1.581-0.742,3.389-2.128,3.772-3.937
			c0.374-1.772-0.716-3.614-2.592-3.816c-2.604-0.28-5.699,3.289-6.651,5.426c-0.082,0.185-1.036,3.22-0.988,3.22
			c0,0,0.045-0.001,0.055-0.001c-0.493,0.56-1.015,1.165-1.572,1.839c-1.019,1.251-2.158,2.675-3.294,4.308
			c-1.139,1.629-2.331,3.43-3.415,5.441c-1.089,2.014-2.133,4.189-2.918,6.568c-0.009,0.027-0.015,0.056-0.023,0.083
			c0.013-0.767-0.021-2.914-0.042-3.078c-0.301-2.319-2.245-6.625-4.821-7.101c-1.856-0.343-3.427,1.111-3.575,2.916
			c-0.151,1.843,1.185,3.688,2.488,4.851c1.469,1.313,5.548,2.584,5.873,2.684c-0.727,2.273-1.288,4.664-1.723,7.116
			c-0.25,1.401-0.458,2.821-0.649,4.246c-0.01-0.664-0.024-1.257-0.034-1.34c-0.301-2.32-2.245-6.625-4.821-7.101
			c-1.856-0.343-3.427,1.111-3.575,2.915c-0.151,1.843,1.185,3.688,2.488,4.852c1.322,1.181,4.778,2.334,5.696,2.627
			c-0.067,0.548-0.141,1.094-0.206,1.642c-0.314,2.629-0.616,5.253-0.992,7.819c-0.132,0.904-0.295,1.79-0.454,2.676
			c-0.009-0.59-0.022-1.086-0.032-1.161c-0.301-2.32-2.245-6.625-4.821-7.101c-1.856-0.343-3.427,1.111-3.575,2.915
			c-0.151,1.843,1.186,3.688,2.488,4.851c1.261,1.127,4.441,2.22,5.531,2.574c-0.192,0.903-0.381,1.808-0.607,2.674
			c-0.168,0.588-0.288,1.166-0.489,1.747c-0.187,0.58-0.372,1.153-0.556,1.722c-0.394,1.082-0.793,2.2-1.203,3.246
			c-0.28,0.729-0.56,1.419-0.84,2.115c0.142-0.898,0.382-2.663,0.386-2.813c0.036-1.554-0.516-4.08-1.614-5.855
			c0.007-0.229-0.007-0.458-0.043-0.686c-0.287-1.788-1.967-3.115-3.79-2.63c-2.531,0.674-4.137,5.117-4.257,7.453
			c-0.007,0.138,0.083,1.641,0.156,2.589c-0.127-0.551-0.245-1.087-0.383-1.652c-0.265-1.12-0.563-2.229-0.879-3.424
			c-0.173-0.572-0.348-1.149-0.524-1.732c-0.162-0.582-0.408-1.176-0.611-1.771c-0.501-1.369-1.075-2.732-1.683-4.092
			c0.98-0.235,4.447-1.119,5.839-2.187c1.386-1.063,2.856-2.803,2.843-4.652c-0.013-1.811-1.472-3.377-3.348-3.174
			c-2.604,0.283-4.864,4.431-5.336,6.722c-0.03,0.143-0.184,1.825-0.251,2.75c-0.372-0.815-0.74-1.63-1.143-2.442
			c-1.164-2.344-2.415-4.68-3.653-7.017c-0.38-0.716-0.749-1.433-1.122-2.15c0.35-0.08,4.494-1.041,6.053-2.238
			c1.386-1.063,2.856-2.803,2.843-4.652c-0.013-1.81-1.472-3.378-3.348-3.174c-2.604,0.283-4.864,4.431-5.337,6.722
			c-0.035,0.173-0.254,2.593-0.279,3.211c-0.82-1.579-1.623-3.16-2.351-4.751c-1.008-2.194-1.875-4.401-2.557-6.603
			c0.163-0.037,4.492-1.021,6.09-2.246c1.386-1.063,2.856-2.803,2.843-4.652c-0.013-1.81-1.472-3.377-3.348-3.173
			c-2.604,0.283-4.864,4.431-5.337,6.722c-0.031,0.151-0.2,1.996-0.259,2.874c-0.082,0.009-0.067,0.007-0.148,0.016
			c-0.702-2.367-1.085-4.749-1.332-6.995c-0.146-1.301-0.213-2.552-0.25-3.772c0.825-0.1,4.591-0.602,6.15-1.546
			c1.494-0.905,3.147-2.473,3.337-4.312c0.186-1.801-1.092-3.519-2.979-3.522c-2.619-0.005-5.321,3.87-6.042,6.095
			c-0.039,0.121-0.302,1.395-0.48,2.326c-0.008-0.55-0.028-1.118-0.025-1.646c0.004-1.981,0.129-3.794,0.253-5.4
			c0.078-0.912,0.166-1.736,0.257-2.505c0.758-0.521,3.787-2.66,4.719-4.188c0.909-1.492,1.653-3.645,0.974-5.364
			c-0.665-1.684-2.591-2.62-4.267-1.753c-2.327,1.203-2.939,5.887-2.554,8.194c0.034,0.199,0.912,3.258,0.952,3.231
			c0,0,0.037-0.025,0.046-0.031c-0.102,0.739-0.203,1.532-0.297,2.401c-0.159,1.606-0.325,3.422-0.371,5.41
			c-0.052,1.987-0.052,4.147,0.153,6.422c0.202,2.281,0.532,4.67,1.19,7.088c0.007,0.027,0.019,0.055,0.026,0.082
			c-0.412-0.647-1.625-2.419-1.733-2.544c-1.531-1.769-5.527-4.287-7.938-3.263c-1.737,0.738-2.246,2.817-1.374,4.404
			C65.833,410.697,67.965,411.499,69.694,411.75z"/>
	</g>
</g>
<g id="Character_2">
	<g>
		<path style="fill:#FFFFFF;stroke:#263238;stroke-miterlimit:10;" d="M338.356,443.747l7.038,12.772c0,0,3.649,1.043,7.559-1.043
			c3.91-2.085,8.081-5.213,10.948-6.256c2.867-1.043,11.469-6.517,13.815-10.687c2.346-4.171,3.128-7.038-0.782-5.995
			c-3.91,1.043-6.517,1.564-10.166,2.085c-3.649,0.521-11.209,0-11.209,0L338.356,443.747z"/>
		<path style="fill:#FFFFFF;stroke:#263238;stroke-miterlimit:10;" d="M248.494,439.753c0,0,3.128,4.953,7.82,7.82
			c4.692,2.867,12.512,4.692,11.99,7.299c-0.521,2.607-5.995,4.692-11.469,3.91c-5.474-0.782-18.507-4.431-21.635-5.735
			c-3.128-1.303-4.953-1.564-4.953-3.649s5.735-16.682,5.735-16.682L248.494,439.753z"/>
		<path style="fill:#FFFFFF;stroke:#263238;stroke-miterlimit:10;" d="M278.398,208.016c0,0-9.648,10.907-13.308,17.973
			c-3.66,7.066-18.663,30.393-16.574,33.897c2.089,3.505,12.851,14.732,18.358,18.507c5.507,3.775,10.293,7.828,10.293,7.828
			l4.167-3.147c0,0-7.585-10.678-12.042-17.929c-4.457-7.25-7.085-10.977-7.085-10.977s12.22-15.018,15.33-18.907
			c3.11-3.889,4.201-20.959,4.345-22.538C282.028,211.146,280.863,206.005,278.398,208.016z"/>
		<g>
			<path style="fill:#FFFFFF;stroke:#263238;stroke-miterlimit:10;" d="M311.862,155.097c0,0,3.408,3.669,3.696,7.568
				c0.288,3.899-0.742,7.635,1.732,9.281c2.474,1.647,5.372,1.955,3.889,3.11c-1.483,1.155-4.208,3.186-4.208,3.186
				s-1.215,11.852-2.476,12.468c-1.261,0.616-11.621,1.905-11.621,1.905s-3.717,6.286-2.928,9.887s7.151,15.415,11.088,22.704
				s4.148,10.148,2.588,17.321c-1.561,7.173-6.478,37.7-6.218,42.653c0.261,4.953,3.91,12.251,3.91,12.251
				s20.853,57.346,23.199,63.863c2.346,6.517,1.564,21.896,3.128,27.63c1.564,5.735,11.73,25.806,13.294,29.455
				s7.492,11.553,7.492,11.553l1.303,2.607c0,0-3.649,3.128-7.82,6.256c-4.171,3.128-9.123,5.213-10.948,5.735
				c-1.825,0.521-4.171,1.303-4.171,1.303s-8.013-14.16-11.141-21.719c-3.128-7.559-8.341-15.9-9.384-26.848
				c-1.043-10.948-4.431-20.853-7.299-29.455c-2.867-8.602-12.251-23.72-12.251-23.72s-7.559,30.237-13.555,37.536
				c-5.995,7.299-14.597,26.848-20.071,36.754c-5.474,9.905-8.08,12.251-8.602,16.943c-0.521,4.692-1.825,8.081-1.825,8.081
				s-9.123-1.825-13.815-4.953c-4.692-3.128-8.602-7.299-8.602-7.299s13.033-27.891,19.289-40.142
				c6.256-12.251,13.815-39.36,14.076-41.185c0.261-1.825,2.867-17.204,3.91-20.592c1.043-3.389,1.303-3.649,1.043-5.474
				c-0.261-1.825-7.299-12.773-4.431-23.46c2.867-10.687,10.635-21.181,10.635-21.181s4.566-16.02,4.518-20.199
				c-0.048-4.178-4.417-13.788-5.629-23.108c-1.212-9.32-0.632-22.693,3.585-29.278c4.218-6.585,11.026-17.021,11.373-19.399
				c0.347-2.378,1.676-5.613-1.539-13.739s4.363-15.221,9.63-18.224C301.975,152.169,311.862,155.097,311.862,155.097z"/>
			<ellipse style="fill:#263238;" cx="312.642" cy="170.203" rx="0.887" ry="2.218"/>
			<path style="fill:none;stroke:#263238;stroke-miterlimit:10;" d="M310.276,166.507c0,0,1.774-2.07,3.549-0.296"/>
			<path style="fill:none;stroke:#263238;stroke-miterlimit:10;" d="M316.191,182.179c0,0-2.661,0.591-4.436-2.366"/>
		</g>
		<g>
			<line style="fill:none;stroke:#263238;stroke-miterlimit:10;" x1="305.319" y1="310.464" x2="297.499" y2="340.962"/>
			<path style="fill:none;stroke:#263238;stroke-miterlimit:10;" d="M324.608,381.365c0,0-1.564,21.374-2.607,28.673"/>
			<path style="fill:none;stroke:#263238;stroke-miterlimit:10;" d="M327.736,393.616c0,0-2.346,16.943-2.346,18.507"/>
		</g>
		<path style="fill:#263238;stroke:#263238;stroke-miterlimit:10;" d="M297.736,172.608c0,0-4.399-6.471-7.712-1.782
			c-3.313,4.688-0.348,9.435,1.529,10.08c1.877,0.645,2.879,0.049,2.879,0.049s-1.474,4.814-4.806,9.242
			c-3.332,4.428-12.161,8.74-19.314,7.44c-7.153-1.301-20.65-14.156-18.058-25.064c2.591-10.908,5.326-16.338,8.446-16.568
			c3.12-0.231,4.987,3.813,8.626,3.544c3.639-0.269,8.08-14.45,20.943-17.231c12.863-2.781,23.78,3.469,25.147,7.812
			c1.367,4.342-0.54,6.836-1.84,6.932c-1.3,0.096-6.47-2.658-9.454-0.608c-2.985,2.05-0.992,4.255-0.598,6.056
			c0.395,1.8-2.629,3.331-2.494,5.15c0.135,1.82,0.548,3.88-0.492,3.957C299.498,171.694,297.736,172.608,297.736,172.608z"/>
		<path style="fill:#263238;stroke:#263238;stroke-miterlimit:10;" d="M311.034,225.207c-1.01-1.87-2.18-4.039-3.374-6.289
			c-0.387,0.194-0.801,0.325-1.247,0.358c-3.379,0.25-11.003-10.948-18.647-15.349c-3.621-2.085-6.467-1.645-8.462-0.606
			c-0.357,0.557-0.708,1.103-1.049,1.634c2.399-1.006,5.808-1.505,9.645,0.791c7.384,4.42,13.294,13.654,14.814,20.076
			c1.52,6.422-5.808,16.896-15.552,19.446c-6.16,1.612-10.21-0.803-12.826-5.532c1.677,7.985,4.908,15.591,4.949,19.183
			c0.048,4.178-4.518,20.198-4.518,20.198s-0.399,0.699-1.03,1.898c12.308,3.629,27.851,5.37,33.867,4.165
			c0.667-9.323,4.669-36.46,6.016-42.653C315.183,235.355,314.971,232.495,311.034,225.207z"/>
		<path style="fill:#FFFFFF;stroke:#263238;stroke-miterlimit:10;" d="M284.58,206.775c0,0,7.076,0.261,10.619,5.749
			c3.542,5.488,19.627,28.607,21.88,30.793c2.253,2.186,5.42,6.134,5.42,6.134s25.054-14.66,29.502-18.125
			c4.448-3.465,8.705-9.53,8.705-9.53s0.472-4.217,0.636-5.536c0.164-1.319,4.063-1.607,4.063-1.607s2.629-3.331,4.728-3.225
			s2.589,3.206,2.589,3.206s2.705,4.766,2.878,7.106s-4.68,7.403-6.702,8.337c-2.022,0.934-5.883,1.742-5.883,1.742
			s-16.129,18.705-21.464,24.327c-5.335,5.622-14.048,11.494-16.07,12.427s-10.167-3.169-11.524-3.853
			c-1.357-0.684-35.628-32.913-35.628-32.913"/>
	</g>
</g>
<g id="Character_1">
	<g>
		<g>
			<path style="fill:#FFFFFF;stroke:#263238;stroke-miterlimit:10;" d="M230.029,217.917c0,0,8.798,13.906,12.771,19.866
				c3.973,5.96,10.785,13.055,10.785,13.055s7.095-6.244,12.771-11.92c5.676-5.676,8.514-15.325,8.514-15.325
				s-3.406-5.96-3.406-7.095c0-1.135,3.122-4.541,3.973-5.392c0.851-0.851,2.27-0.568,2.27-0.568s0.851-1.135,3.122-1.135
				c2.27,0,7.663,5.392,8.23,9.365c0.568,3.973-3.406,8.23-5.109,10.785c-1.703,2.554-9.365,16.745-12.487,23.556
				c-3.122,6.811-13.623,18.447-17.028,19.015s-19.866-13.339-21.853-15.893c-1.987-2.554,0-23.272-1.419-26.678
				C229.746,226.147,230.029,217.917,230.029,217.917z"/>
			<path style="fill:none;stroke:#263238;stroke-miterlimit:10;" d="M277.708,210.538c0,0,7.095,5.392,4.257,6.528
				c-2.838,1.135-3.973-1.703-3.973-1.703s2.838,3.406,1.703,6.244"/>
			<path style="fill:none;stroke:#263238;stroke-miterlimit:10;" d="M280.263,217.633c0,0,3.973,3.973,5.96,4.257"/>
		</g>
		<g>
			<path style="fill:#FFFFFF;stroke:#263238;stroke-miterlimit:10;" d="M191.148,319.235c0,0-9.366,36.043-12.487,40.016
				c-3.122,3.973-18.163,17.312-21.001,24.975c-2.838,7.663-16.589,38.01-18.292,42.834c-1.703,4.825-3.122,6.244-3.122,6.244
				l11.92,6.527c0,0,12.616-23.252,19.427-31.766c6.811-8.514,15.609-21.853,21.853-28.097c6.244-6.244,24.691-32.07,24.691-32.07
				L191.148,319.235z"/>
			<path style="fill:#263238;stroke:#263238;stroke-miterlimit:10;" d="M214.136,347.899l-22.988-28.664
				c0,0-8.281,31.866-11.864,38.971c3.392,4.1,9.223,9.129,18.548,11.696C205.334,360.222,214.136,347.899,214.136,347.899z"/>
			<path style="fill:#FFFFFF;stroke:#263238;stroke-miterlimit:10;" d="M148.166,439.832c0,0,2.922-5.149,6.359-12.004
				c-5.145-1.439-10.43-4.2-13.175-6.057c-1.037,2.87-1.605,4.223-1.982,5.29c-1.703,4.825-3.122,6.244-3.122,6.244L148.166,439.832
				z"/>
			<g>
				<path style="fill:#FFFFFF;stroke:#263238;stroke-miterlimit:10;" d="M153.274,444.373c0,0-1.135-0.568-1.419-5.109
					c-0.284-4.541-0.851-7.663-2.554-4.825c-1.703,2.838-1.703,2.838-1.703,2.838l-11.068-6.527c0,0-1.987,1.703-1.987,3.406
					s-7.947,9.366-6.244,11.636c1.703,2.27,7.663,2.27,13.623,6.244c5.96,3.973,7.095,5.96,14.474,6.244
					c7.379,0.284,8.798-2.271,8.798-3.69s-5.96-3.689-7.947-5.676C155.261,446.927,153.274,444.373,153.274,444.373z"/>
				<path style="fill:#FFFFFF;stroke:#263238;stroke-miterlimit:10;" d="M165.194,454.59c0-0.355-0.374-0.764-0.965-1.208
					c-1.446,0.929-4.671,2.266-10.671,1.492c-8.798-1.135-8.798-3.689-13.623-7.947c-3.24-2.859-8.006-4.178-10.794-4.739
					c-0.907,1.515-1.404,2.854-0.842,3.603c1.703,2.27,7.663,2.27,13.623,6.244c5.96,3.973,7.095,5.96,14.474,6.244
					C163.775,458.563,165.194,456.009,165.194,454.59z"/>
			</g>
		</g>
		<g>
			<path style="fill:#FFFFFF;stroke:#263238;stroke-miterlimit:10;" d="M187.743,298.517c0,0-3.122,10.217,2.554,24.691
				c5.676,14.474,28.948,39.733,36.327,45.976s7.379,6.244,7.379,6.244s1.135,17.028,9.365,28.664
				c8.23,11.636,28.097,39.733,28.097,39.733l9.366-7.095c0,0-7.663-9.082-9.933-17.88c-2.27-8.798-14.474-35.192-16.461-43.99
				c-1.987-8.798-9.366-24.123-10.217-25.542c-0.852-1.419-16.177-30.367-16.177-30.367l2.27-13.906L187.743,298.517z"/>
			<path style="fill:#263238;stroke:#263238;stroke-miterlimit:10;" d="M225.592,368.278c2.216-3.028,8.608-9.813,22.201-11.483
				c-1.746-3.91-3.221-6.889-3.574-7.477c-0.852-1.419-16.177-30.367-16.177-30.367l2.27-13.906l-42.571-6.527
				c0,0-3.122,10.217,2.554,24.691C195.732,337.069,217.293,360.806,225.592,368.278z"/>
			<path style="fill:#FFFFFF;stroke:#263238;stroke-miterlimit:10;" d="M262.567,431.241c5.029,7.112,8.898,12.584,8.898,12.584
				l9.366-7.095c0,0-4.676-5.556-7.805-12.183C270.664,426.672,267.147,429.282,262.567,431.241z"/>
			<g>
				<path style="fill:#FFFFFF;stroke:#263238;stroke-miterlimit:10;" d="M280.263,428.783c0,0-4.257-3.973-3.689,1.135
					c0.568,5.108,2.27,6.811,2.27,6.811s-11.636,5.392-10.501,7.947s2.554,4.257,2.554,4.257s7.095,11.068,10.217,9.933
					c3.122-1.135,8.514-8.23,13.339-10.501c4.825-2.271,10.784-9.933,12.203-14.474c1.419-4.541,0.568-6.244-2.838-4.257
					c-3.406,1.987-7.946,4.541-13.055,4.541c-5.108,0-8.798-2.838-8.798-2.838L280.263,428.783z"/>
				<path style="fill:#FFFFFF;stroke:#263238;stroke-miterlimit:10;" d="M305.867,428.829c-0.02,0.083-0.043,0.153-0.062,0.238
					c-1.703,7.663-11.352,13.055-15.893,17.312c-3.717,3.485-10.851,8.296-13.319,9.929c1.677,1.734,3.369,2.977,4.521,2.559
					c3.122-1.135,8.514-8.23,13.339-10.501c4.825-2.271,10.784-9.933,12.203-14.474
					C307.727,430.466,307.503,428.658,305.867,428.829z"/>
			</g>
		</g>
		<g>
			<path style="fill:#FFFFFF;stroke:#263238;stroke-miterlimit:10;" d="M239.567,150.795c0,0,2.409,4.161,3.066,9.198
				c0.657,5.037,0.438,7.884,2.409,10.293c1.971,2.409,3.723,3.942,3.285,5.256c-0.438,1.314-3.504,2.847-3.504,2.847
				s-2.628,10.731-5.037,12.483c-2.409,1.752-10.512-0.438-10.512-0.438s-3.066,4.161-2.847,10.074
				c0.219,5.913,5.037,15.111,7.884,23.653c2.847,8.541,3.285,15.768,0.438,27.157c-2.847,11.388-3.942,35.917-3.723,42.487
				c0.219,6.57,0.219,10.074,0.219,10.074s3.285,3.723-11.826,3.723c-15.111,0-29.347-5.694-30.88-6.351
				c-1.533-0.657-1.971-1.752-1.971-1.752s3.504-38.326,2.409-41.392c-1.095-3.066-2.19-17.082-2.19-17.082
				s0.438-23.872,7.227-32.851c6.789-8.979,14.673-12.921,17.52-17.52c2.847-4.599,1.752-9.855,1.752-9.855
				s-7.446-5.475-10.95-15.987c-3.504-10.512,6.351-21.901,13.578-24.529c7.227-2.628,22.12,0.876,24.31,3.504
				C242.414,146.415,239.567,150.795,239.567,150.795z"/>
			<path style="fill:#263238;stroke:#263238;stroke-miterlimit:10;" d="M240.224,143.787c-2.19-2.628-17.082-6.132-24.31-3.504
				c-7.227,2.628-17.082,14.016-13.578,24.529c3.504,10.512,10.95,15.987,10.95,15.987s0.064,0.311,0.12,0.839
				c1.597-0.276,5.355-2.153,5.355-2.153s-1.752-1.314-2.409-2.19c-0.657-0.876-2.409-7.008,1.095-8.103
				c3.504-1.095,4.38,1.314,5.037,2.628c0.657,1.314,2.409,0,3.066-0.657c0.657-0.657,0.219-5.694,0.219-5.694
				s2.628-1.971,4.599-4.161c1.971-2.19-5.475-7.227-5.475-7.227s5.475-0.219,8.322-0.657c2.847-0.438,6.351-2.628,6.351-2.628
				S242.414,146.415,240.224,143.787z"/>
			<polygon style="fill:#263238;stroke:#263238;stroke-miterlimit:10;" points="229.274,190.435 223.799,187.807 227.522,193.721 
							"/>
			<path style="fill:#263238;" d="M241.755,168.914c0.093,1.206-0.174,2.21-0.596,2.242s-0.84-0.919-0.932-2.125
				c-0.093-1.206,0.174-2.21,0.596-2.242C241.245,166.757,241.662,167.708,241.755,168.914z"/>
			<path style="fill:none;stroke:#263238;stroke-miterlimit:10;" d="M238.253,164.812c0,0,1.533-2.409,3.066-1.095"/>
			<path style="fill:none;stroke:#263238;stroke-miterlimit:10;" d="M242.414,181.456c0,0-3.285-1.314-3.285-2.19"/>
			<path style="fill:#92E3A9;stroke:#263238;stroke-miterlimit:10;" d="M231.245,303.88c0,0,0-3.504-0.219-10.074
				c-0.219-6.57,0.876-31.099,3.723-42.487c2.847-11.388,2.409-18.615-0.438-27.157c-0.935-2.803-2.081-5.676-3.208-8.482
				c-5.108,1.06-10.912-6.686-14.413-12.521c-4.257-7.095-11.636-5.96-11.636-5.96l-0.06-0.052
				c-0.725,0.609-1.477,1.246-2.252,1.918c3.306,0.857,9.038,3.322,11.962,10.337c4.257,10.217-2.838,22.988-11.352,26.961
				c-6.205,2.896-12.996,0.219-16.232-1.449c-0.286,3.641-0.333,6.11-0.333,6.11s1.095,14.016,2.19,17.082
				c1.095,3.066-2.409,41.392-2.409,41.392s0.438,1.095,1.971,1.752c1.533,0.657,15.768,6.351,30.88,6.351
				C234.53,307.603,231.245,303.88,231.245,303.88z"/>
		</g>
		<path style="fill:#FFFFFF;stroke:#263238;stroke-miterlimit:10;" d="M206.19,201.74c0,0-11.352-0.568-16.177,5.392
			c-4.825,5.96-28.097,41.719-29.232,44.557c-1.135,2.838,1.703,7.095,1.703,7.095s35.475,31.786,36.611,32.07
			c1.135,0.284,7.663,7.947,9.649,8.514c1.987,0.568,8.514-1.135,9.365-1.987s4.825-4.541,3.122-5.96
			c-1.703-1.419-2.838-2.27-2.838-3.122c0-0.852,0.851-3.973-2.27-4.541c-3.122-0.568-12.771-0.568-12.771-0.568
			s-4.825-5.676-11.068-14.474c-6.244-8.798-9.933-15.609-9.933-15.609l26.11-25.259"/>
	</g>
</g>
</svg>
